<?xml version="1.0" standalone="no"?>
<!DOCTYPE svg PUBLIC "-//W3C//DTD SVG 20010904//EN"
 "http://www.w3.org/TR/2001/REC-SVG-20010904/DTD/svg10.dtd">
<svg version="1.0" xmlns="http://www.w3.org/2000/svg"
 width="1080.000000pt" height="1080.000000pt" viewBox="0 0 1080.000000 1080.000000"
 preserveAspectRatio="xMidYMid meet">

<g transform="translate(0.000000,1080.000000) scale(0.100000,-0.100000)"
fill="#000000" stroke="none">
<path d="M3506 10775 c-27 -21 -28 -25 -15 -42 12 -16 12 -17 -2 -6 -9 7 -20
9 -24 5 -5 -4 -4 0 1 8 4 8 -12 -1 -36 -20 -69 -53 -70 -55 -57 -71 10 -11 9
-11 -6 0 -15 12 -22 9 -53 -25 -19 -21 -33 -33 -29 -26 14 27 -24 5 -85 -51
-8 -8 -36 -28 -63 -46 -26 -18 -45 -36 -42 -42 4 -5 -2 -6 -11 -2 -13 5 -15 3
-9 -7 5 -9 4 -11 -4 -6 -14 9 -124 -71 -116 -84 3 -6 0 -7 -8 -4 -8 3 -27 -6
-41 -20 -15 -13 -56 -43 -92 -66 -35 -23 -64 -46 -64 -51 0 -5 -7 -9 -15 -9
-7 0 -18 -6 -22 -12 -4 -7 -17 -19 -28 -26 -11 -7 -35 -22 -52 -33 -18 -12
-33 -25 -33 -30 0 -5 -4 -9 -10 -9 -17 0 -49 -33 -43 -44 3 -6 3 -8 -2 -4 -4
4 -14 3 -22 -3 -7 -6 -13 -9 -13 -5 0 7 -242 -172 -251 -186 -3 -5 -10 -10
-15 -11 -5 -1 -8 -6 -6 -10 1 -5 -2 -6 -7 -2 -6 3 -21 -5 -33 -17 -13 -13 -25
-23 -28 -23 -11 0 -100 -69 -100 -77 0 -5 -4 -6 -10 -3 -5 3 -10 1 -10 -4 0
-6 -4 -11 -10 -11 -9 0 -42 -25 -75 -57 -7 -7 -15 -9 -19 -6 -3 4 -6 2 -6 -4
0 -5 -12 -15 -26 -21 -15 -7 -22 -17 -18 -24 4 -7 3 -8 -4 -4 -7 4 -12 2 -12
-3 0 -6 -3 -10 -7 -9 -14 5 -53 -28 -45 -37 4 -5 2 -5 -4 -2 -7 4 -29 -7 -50
-23 -22 -16 -43 -33 -49 -37 -5 -5 -21 -15 -35 -24 -14 -9 -36 -27 -50 -39
-14 -12 -38 -28 -53 -36 -17 -9 -25 -20 -21 -27 4 -7 4 -9 -1 -5 -11 10 -47
-11 -40 -23 4 -5 3 -8 -2 -7 -14 4 -57 -23 -87 -56 -16 -17 -25 -25 -21 -17
12 21 -82 -46 -100 -72 -8 -12 -19 -22 -23 -22 -4 0 -6 -3 -5 -7 2 -4 -3 -5
-10 -2 -13 5 -64 -54 -59 -69 1 -5 -2 -5 -9 -2 -7 5 -3 16 13 33 20 22 -66
-37 -112 -76 -8 -8 -39 -31 -67 -51 -29 -21 -49 -42 -45 -46 4 -5 2 -5 -4 -2
-13 8 -92 -42 -136 -87 -18 -17 -28 -24 -23 -16 4 8 -3 4 -16 -10 -13 -13 -23
-28 -21 -33 1 -5 -2 -6 -7 -2 -11 6 -121 -63 -121 -76 0 -5 -5 -9 -11 -9 -10
0 -89 -57 -131 -94 -10 -9 -20 -16 -23 -16 -12 0 -43 -34 -39 -42 3 -5 2 -8
-3 -7 -4 1 -11 0 -15 -1 -5 -1 -11 -3 -15 -4 -5 -1 -20 -10 -36 -20 -20 -14
-25 -22 -17 -31 8 -9 4 -12 -13 -10 -30 4 -71 -30 -63 -51 5 -14 4 -15 -8 -4
-16 12 -40 -1 -102 -57 -13 -13 -28 -24 -32 -25 -4 -2 -6 -7 -4 -11 1 -5 -2
-6 -7 -3 -5 4 -15 0 -23 -7 -7 -8 -18 -16 -23 -18 -6 -2 -32 -20 -57 -39 l-47
-35 -1 -708 0 -708 31 18 c17 10 49 36 72 58 22 22 35 31 27 20 -8 -11 8 -1
35 21 28 23 60 46 73 53 12 7 20 17 16 23 -5 7 -2 8 5 4 7 -5 18 0 26 10 8 11
15 15 15 9 0 -5 19 9 41 30 23 22 38 33 34 25 -6 -10 -1 -8 13 4 12 10 19 24
15 30 -3 6 -3 8 2 4 11 -11 47 11 39 24 -4 7 -3 8 5 4 12 -8 64 28 54 38 -3 3
-1 7 5 7 23 3 27 4 49 20 13 9 20 19 15 24 -4 5 -2 5 5 2 15 -9 45 21 36 36
-4 7 0 8 12 4 9 -4 24 -2 31 4 17 14 18 33 2 23 -7 -4 -9 -3 -5 1 12 14 38 15
31 2 -3 -7 2 -3 10 7 9 11 16 16 16 12 0 -4 6 -1 14 6 8 7 31 24 51 38 59 41
140 104 143 112 2 5 9 8 14 8 14 0 120 79 131 97 4 7 12 13 17 13 14 0 100 63
100 73 0 4 4 6 9 3 5 -4 19 6 31 21 12 16 18 22 14 14 -3 -7 26 11 65 40 39
29 71 57 71 62 0 4 5 5 10 2 6 -3 10 -2 10 2 0 5 15 17 33 28 17 10 37 24 44
29 29 26 41 34 62 45 19 11 20 15 9 29 -11 15 -11 15 3 4 14 -10 22 -7 54 18
21 16 41 30 44 30 3 0 20 13 36 29 17 15 41 34 55 41 35 19 129 97 124 103 -3
3 3 4 13 4 10 -1 17 4 15 11 -1 6 1 11 5 11 21 -3 33 2 27 13 -4 6 -3 8 4 4 6
-3 23 5 38 19 15 14 39 31 53 38 14 7 25 20 25 28 -1 9 5 16 12 16 7 0 11 -4
8 -9 -4 -5 3 -4 15 4 12 7 19 19 16 26 -3 7 0 10 5 7 6 -3 24 3 40 15 27 19
29 24 18 38 -12 15 -11 16 5 3 16 -12 21 -10 53 25 19 21 33 33 29 27 -13 -26
23 -4 85 50 8 8 36 28 63 46 43 29 64 51 35 36 -7 -4 -5 0 4 8 10 8 14 18 10
22 -4 5 -1 5 6 1 7 -4 9 -12 6 -18 -5 -7 -2 -8 7 -3 26 15 154 109 170 125 8
8 46 35 82 60 37 24 67 47 67 52 0 4 5 8 11 8 10 0 89 57 132 94 9 9 20 16 23
16 5 0 29 17 92 65 7 6 23 19 35 30 12 11 24 20 27 20 3 0 17 9 33 19 23 16
25 21 15 35 -12 14 -11 14 4 2 15 -11 22 -10 49 13 17 14 35 26 40 26 6 0 8 4
4 9 -3 5 5 13 17 17 23 7 35 16 75 54 14 14 22 19 18 11 -7 -12 74 45 118 84
9 8 21 15 26 15 6 0 16 9 24 20 8 11 16 18 19 15 2 -3 20 9 38 25 19 17 36 30
39 30 4 0 17 10 31 23 14 13 51 40 83 61 31 21 57 42 57 48 0 5 4 7 9 4 5 -4
11 -3 13 1 1 5 29 25 60 47 32 21 55 42 52 47 -3 5 -2 9 3 8 17 -4 43 14 36
25 -3 6 -3 8 2 4 11 -10 47 11 40 22 -3 6 1 7 9 4 9 -3 16 -1 16 4 0 6 8 13
19 17 10 3 33 19 50 35 17 17 31 28 31 25 0 -4 31 18 69 47 38 29 77 59 87 66
11 7 13 10 5 6 -10 -5 -12 -3 -7 5 5 7 15 10 23 7 10 -4 13 -2 10 8 -3 8 1 13
11 12 9 0 16 4 15 11 -2 7 4 10 12 7 8 -4 17 1 21 10 3 9 9 14 13 12 4 -3 24
11 45 30 20 19 41 34 45 34 4 0 17 8 29 18 11 9 30 24 43 32 13 8 33 25 45 36
13 12 25 20 27 18 2 -2 16 7 31 21 15 14 30 25 34 25 4 0 18 10 32 23 14 12
38 30 53 40 15 10 25 22 22 27 -3 6 0 7 8 4 8 -3 25 6 38 20 13 14 29 26 36
26 7 0 17 8 22 18 6 9 11 13 11 7 0 -5 19 9 41 30 23 22 38 34 34 26 -5 -9 2
-7 17 5 14 10 23 24 20 29 -3 6 -2 7 3 3 7 -7 68 31 85 52 3 3 21 16 41 28 19
12 49 34 65 49 16 15 31 28 34 28 20 2 51 29 46 40 -3 9 1 12 15 10 10 -2 19
-1 19 3 0 4 14 16 30 26 17 9 42 29 57 44 14 15 22 20 18 12 -5 -8 5 -4 21 10
16 14 31 26 33 28 2 1 -274 1 -615 1 -340 -1 -602 -5 -582 -9 53 -10 93 -45
143 -124 16 -25 33 -42 38 -39 6 3 7 1 3 -5 -3 -6 -2 -13 3 -17 16 -9 73 -97
76 -117 2 -10 0 -16 -5 -13 -5 3 -21 -6 -36 -20 -15 -14 -31 -25 -36 -25 -5 0
-6 -4 -3 -10 10 -16 -7 -12 -28 8 -11 9 -17 12 -14 5 9 -15 -59 -96 -89 -106
-13 -5 -22 -12 -20 -15 2 -4 -18 -7 -45 -6 -26 1 -46 -3 -43 -8 3 -4 10 -5 16
-2 7 4 8 2 4 -5 -4 -6 -3 -18 3 -25 6 -7 15 -35 20 -62 8 -41 6 -55 -11 -89
-12 -22 -20 -41 -19 -43 1 -1 -10 -13 -24 -26 -13 -13 -23 -25 -20 -27 2 -3
-16 -16 -40 -29 -25 -14 -45 -28 -45 -33 0 -4 -4 -5 -10 -2 -5 3 -10 1 -10 -4
0 -6 -3 -10 -7 -10 -22 4 -43 -2 -38 -10 3 -6 -10 -5 -31 1 -20 5 -38 7 -41 4
-8 -7 -58 36 -81 70 -11 16 -14 17 -19 4 -3 -8 -30 -38 -59 -66 -66 -63 -146
-96 -201 -83 -25 5 -42 4 -52 -4 -10 -8 -13 -8 -8 -1 4 7 0 17 -8 24 -8 7 -15
9 -15 4 0 -9 -55 50 -77 83 -8 13 -19 21 -23 18 -5 -3 -6 5 -3 17 6 23 6 22
-16 -2 -12 -14 -19 -19 -16 -11 5 9 -1 8 -19 -4 -14 -10 -26 -22 -27 -29 0 -6
-2 -21 -3 -33 -1 -11 6 -32 17 -45 10 -12 15 -17 11 -9 -5 10 -3 12 5 7 7 -5
10 -14 7 -22 -3 -8 1 -17 10 -21 8 -3 24 -23 35 -45 11 -21 24 -36 30 -33 5 4
9 3 8 -2 -3 -19 2 -33 12 -33 5 0 7 5 3 12 -5 7 -3 8 6 3 10 -6 5 -15 -21 -37
-19 -16 -48 -42 -65 -58 -32 -31 -53 -37 -70 -20 -6 6 -10 2 -11 -12 -1 -12
-7 -24 -13 -28 -6 -4 -13 -16 -14 -26 -2 -10 -9 -18 -15 -16 -15 3 -42 -23
-33 -32 3 -4 -2 -4 -12 0 -14 6 -17 4 -11 -6 5 -8 3 -11 -6 -8 -8 3 -24 1 -37
-3 -46 -18 -94 0 -137 51 -22 26 -44 45 -49 42 -5 -3 -6 0 -2 6 4 6 -2 20 -13
31 -11 11 -17 22 -14 24 2 3 -4 10 -16 16 -14 8 -22 8 -26 0 -4 -6 -13 -8 -21
-5 -12 4 -12 2 -4 -14 6 -11 16 -19 23 -17 7 1 11 -4 9 -11 -1 -7 19 -41 46
-76 37 -49 52 -62 63 -55 11 5 16 4 16 -6 0 -8 -4 -12 -9 -9 -14 9 -9 -17 7
-32 17 -18 20 -44 4 -44 -5 0 -7 -5 -4 -10 4 -6 2 -9 -3 -8 -10 3 -38 -14 -74
-44 -28 -24 -54 -23 -61 3 -3 12 -10 18 -16 14 -6 -3 -9 0 -6 7 3 7 -8 28 -25
46 -16 18 -28 34 -27 35 6 7 -41 55 -48 49 -3 -4 -6 -2 -5 3 4 19 0 38 -6 32
-4 -3 -13 1 -22 10 -14 14 -17 14 -28 -1 -7 -10 -11 -25 -9 -34 2 -9 4 -21 4
-25 1 -5 6 -5 13 -1 6 4 8 3 4 -4 -3 -6 -2 -13 4 -17 6 -4 8 -11 5 -16 -3 -5
1 -6 10 -3 10 4 14 2 10 -8 -3 -8 4 -25 15 -38 12 -13 30 -39 41 -57 12 -18
26 -30 31 -27 7 4 8 2 4 -5 -4 -6 -2 -18 4 -26 10 -12 9 -16 -4 -21 -9 -3 -13
-10 -10 -15 3 -5 -3 -6 -12 -2 -12 4 -15 3 -10 -6 4 -6 3 -10 -2 -9 -15 5 -73
-42 -67 -53 4 -5 -5 -4 -19 2 -14 7 -23 15 -21 20 3 4 1 9 -4 11 -5 1 -21 21
-36 43 -14 22 -42 56 -60 76 -19 20 -32 39 -29 42 3 3 -12 22 -33 43 -21 21
-31 34 -23 29 8 -5 3 6 -12 24 -16 18 -29 36 -29 39 -6 29 -5 51 1 47 4 -3 14
2 21 11 18 22 68 46 79 39 6 -3 14 5 19 18 6 14 15 28 21 32 5 3 8 11 4 16 -3
5 -2 8 3 7 4 -1 21 6 37 17 16 11 36 21 45 22 34 7 110 9 107 4 -2 -3 7 -14
20 -24 13 -10 24 -13 24 -7 0 6 -7 13 -15 16 -8 4 -13 10 -10 14 3 5 1 12 -5
15 -7 4 -8 11 -2 18 18 22 23 73 11 103 -14 34 -18 65 -9 59 9 -6 71 40 65 47
-3 3 3 5 13 4 10 0 29 -13 43 -28 l25 -26 38 28 c36 28 66 30 66 6 0 -6 14
-26 30 -45 35 -40 37 -47 10 -61 -11 -6 -18 -15 -15 -21 4 -5 1 -8 -7 -7 -7 2
-12 -2 -11 -9 2 -7 -4 -10 -15 -7 -16 5 -16 5 0 -9 10 -8 15 -17 11 -20 -3 -4
-1 -7 5 -7 7 0 11 -6 9 -12 -1 -7 4 -12 10 -11 7 2 12 0 12 -5 -3 -18 2 -32
12 -32 5 0 8 4 5 8 -3 5 2 9 10 9 10 0 11 -4 4 -11 -16 -16 -12 -26 10 -26 21
0 44 32 32 45 -4 5 -2 5 4 2 7 -4 17 0 24 8 7 8 17 12 24 8 6 -4 5 1 -3 10 -7
9 -18 14 -24 10 -6 -4 -7 -1 -2 7 4 7 4 15 -1 19 -12 8 -62 74 -106 140 l-36
55 49 37 c27 20 46 38 43 41 -2 3 7 3 21 1 21 -5 25 -2 25 18 0 12 3 19 6 16
4 -3 15 4 25 17 10 13 32 29 49 36 27 11 32 10 50 -11 10 -13 19 -30 20 -37 0
-7 5 -10 10 -7 6 3 11 -4 11 -17 1 -18 2 -19 6 -5 3 10 0 30 -5 46 -7 19 -6
36 3 57 6 16 10 35 7 42 -2 7 0 11 5 10 4 -2 24 14 44 35 20 20 40 37 44 37 5
0 16 7 25 15 11 10 36 15 71 15 78 -1 89 -2 89 -12 0 -4 5 -8 11 -8 7 0 18 -8
26 -17 12 -16 12 -15 2 9 -7 15 -15 25 -19 23 -4 -2 -3 19 2 48 5 29 10 57 10
64 1 7 8 15 16 18 8 3 11 12 8 21 -3 8 -2 12 4 9 6 -3 10 -2 10 4 0 6 19 20
43 32 59 30 126 81 127 97 0 7 4 11 10 7 5 -3 18 0 29 7 17 11 23 10 34 -7 14
-18 15 -18 22 6 4 13 15 33 24 43 13 16 13 18 1 12 -9 -5 -8 -2 2 7 10 8 14
17 10 21 -4 4 -2 6 4 4 14 -4 86 60 80 70 -2 4 6 8 17 8 28 2 68 12 75 19 3 3
-154 5 -349 5 l-354 -1 -29 -24z m859 -5 c3 -6 -1 -7 -9 -4 -18 7 -21 14 -7
14 6 0 13 -4 16 -10z m83 -90 c-7 -10 -14 -17 -17 -15 -4 4 18 35 25 35 2 0
-1 -9 -8 -20z m-918 -364 c0 -2 -8 -10 -17 -17 -16 -13 -17 -12 -4 4 13 16 21
21 21 13z m-73 -41 c0 -8 -4 -12 -9 -9 -5 3 -6 10 -3 15 9 13 12 11 12 -6z
m-132 -125 c-3 -5 -12 -10 -18 -10 -7 0 -6 4 3 10 19 12 23 12 15 0z m-170
-119 c3 -5 2 -12 -3 -15 -5 -3 -9 1 -9 9 0 17 3 19 12 6z m-710 -61 c3 -6 -1
-7 -9 -4 -18 7 -21 14 -7 14 6 0 13 -4 16 -10z m385 -94 c0 -2 -8 -10 -17 -17
-16 -13 -17 -12 -4 4 13 16 21 21 21 13z m-323 -458 c7 -1 9 -6 6 -11 -4 -6 0
-8 9 -5 8 4 21 2 29 -4 11 -8 9 -8 -5 -4 -15 5 -13 0 10 -23 42 -42 74 -81 66
-81 -4 0 2 -8 13 -17 16 -13 17 -15 3 -10 -10 4 -18 3 -18 -1 1 -10 26 -42 31
-39 2 1 3 0 2 -2 -1 -2 7 -17 18 -33 20 -27 20 -31 6 -61 -9 -17 -13 -36 -10
-42 4 -5 2 -7 -2 -2 -11 10 -65 -42 -65 -62 0 -14 -1 -14 -10 -1 -9 13 -14 7
-11 -12 0 -4 -7 -4 -16 -1 -12 5 -14 3 -8 -8 4 -8 5 -11 0 -7 -4 4 -14 3 -22
-3 -18 -16 -123 -17 -153 -2 -14 7 -31 13 -37 13 -7 0 -13 4 -13 8 0 5 -11 15
-25 22 -13 7 -22 17 -19 21 2 4 -2 11 -9 16 -27 15 -58 93 -62 155 -3 51 0 67
20 98 13 21 21 40 19 43 -3 3 5 10 18 17 22 11 22 10 4 -4 -11 -9 -15 -16 -8
-16 6 0 17 8 24 18 31 43 98 55 215 40z m-516 -347 c13 -5 36 -21 50 -35 15
-13 30 -22 35 -18 4 4 4 2 1 -4 -3 -6 8 -26 26 -44 18 -19 25 -30 17 -26 -8 4
-4 -2 10 -13 14 -11 21 -21 16 -21 -5 0 1 -9 14 -20 13 -11 20 -20 16 -20 -4
0 -1 -7 6 -15 57 -63 62 -80 33 -99 -13 -9 -28 -16 -33 -16 -5 0 -15 -7 -23
-16 -7 -8 -21 -13 -31 -10 -13 3 -22 -3 -28 -18 -4 -13 -22 -34 -39 -48 -16
-14 -27 -29 -24 -32 4 -3 -3 -6 -15 -6 -12 0 -22 -3 -22 -7 0 -5 -25 -8 -55
-7 -39 0 -52 -3 -45 -11 12 -14 9 -54 -5 -52 -5 1 -9 -6 -9 -15 1 -10 -2 -15
-7 -13 -4 3 -18 -8 -30 -24 -12 -17 -26 -28 -31 -25 -5 3 -18 -2 -30 -13 -11
-10 -22 -17 -24 -15 -11 7 -24 1 -18 -9 3 -6 -14 1 -40 15 -25 14 -46 24 -46
21 0 -2 -11 7 -25 21 -14 14 -25 27 -25 30 0 3 -10 15 -22 26 -13 11 -16 16
-8 12 10 -5 8 1 -5 17 -44 54 -55 61 -70 49 -8 -6 -19 -9 -25 -5 -5 3 -10 2
-10 -4 0 -5 3 -11 8 -13 4 -1 17 -16 30 -32 12 -16 22 -25 22 -20 0 5 9 -9 21
-31 11 -22 27 -45 35 -51 8 -6 14 -14 14 -18 0 -3 14 -25 30 -48 28 -39 29
-43 13 -52 -10 -5 -22 -15 -26 -23 -4 -7 -14 -13 -22 -13 -8 0 -20 -8 -27 -18
-19 -26 -45 -34 -52 -15 -5 13 -9 13 -24 2 -15 -12 -16 -12 -5 2 10 12 9 20
-3 37 -8 12 -20 20 -25 17 -5 -3 -7 0 -4 7 3 7 -10 29 -27 49 -18 20 -41 49
-50 65 -19 33 -49 42 -67 20 -13 -15 -5 -66 10 -66 5 0 14 -11 21 -25 6 -13
15 -22 19 -19 5 3 6 -3 2 -12 -5 -13 -3 -15 7 -9 8 5 11 4 7 -2 -3 -5 5 -21
19 -36 13 -14 24 -29 24 -32 0 -4 9 -19 20 -33 l21 -26 -25 -21 c-14 -12 -22
-26 -18 -30 4 -5 1 -5 -5 -1 -8 4 -28 -5 -49 -20 -33 -26 -37 -27 -49 -11 -6
9 -15 13 -19 9 -4 -4 -6 -2 -5 3 6 19 -33 66 -50 60 -12 -5 -13 -4 -4 6 9 9 3
24 -30 65 -23 30 -45 54 -48 54 -4 0 -10 10 -13 23 -9 32 -54 80 -68 71 -7 -5
-8 -3 -3 6 4 7 2 16 -5 20 -10 6 -6 15 17 37 52 48 113 88 99 64 -4 -6 -2 -11
3 -11 6 0 11 7 11 15 0 8 11 25 25 37 13 11 22 26 18 31 -3 6 -1 7 5 3 7 -4
12 -2 12 5 0 7 3 10 6 6 4 -3 21 1 38 10 39 21 81 18 123 -7 37 -22 42 -14 14
21 -18 22 -18 24 0 56 21 36 23 47 11 39 -4 -2 -8 3 -8 12 0 9 -4 31 -8 48 -6
27 -3 33 38 62 24 18 47 32 50 32 8 0 46 -38 47 -47 2 -13 23 -4 40 17 9 11
19 16 23 13 3 -4 6 -1 6 5 0 23 26 12 43 -18 10 -16 22 -30 28 -30 5 0 14 -12
19 -26 9 -22 6 -29 -22 -55 -18 -16 -37 -29 -43 -29 -5 0 -1 -7 10 -16 11 -8
18 -17 16 -20 -2 -3 11 -25 29 -49 25 -34 37 -42 49 -35 20 11 53 65 44 74 -4
3 -9 28 -13 54 -4 37 -2 52 9 63 14 12 13 14 -4 18 -10 2 -25 9 -33 17 -7 8
-19 14 -26 14 -7 0 -23 10 -35 21 -21 19 -21 23 -7 31 9 5 16 15 16 22 0 23
88 111 124 126 20 7 36 16 36 19 0 11 87 12 111 2z m766 -246 c0 -8 -4 -12 -9
-9 -5 3 -6 10 -3 15 9 13 12 11 12 -6z m-816 -252 c13 -16 12 -17 -3 -4 -17
13 -22 21 -14 21 2 0 10 -8 17 -17z m-881 -213 c16 -9 22 -10 46 -10 9 0 12
-5 8 -12 -5 -8 -2 -9 10 -5 9 4 15 3 11 -2 -3 -5 7 -19 21 -30 46 -36 74 -107
72 -181 0 -36 -7 -74 -15 -86 -7 -11 -10 -24 -6 -28 5 -4 1 -6 -7 -4 -9 2 -14
-4 -14 -14 1 -10 -4 -14 -12 -11 -8 3 -17 -2 -20 -10 -11 -29 -86 -49 -155
-43 -84 7 -89 8 -89 19 0 5 -7 7 -15 3 -8 -3 -14 -2 -12 3 3 11 -60 81 -67 74
-6 -6 -10 12 -7 30 2 16 -40 -4 -72 -33 -17 -17 -17 -19 -2 -28 16 -8 16 -9 1
-15 -11 -5 -15 -3 -10 5 4 7 3 8 -4 4 -9 -5 -9 -13 -2 -27 6 -10 13 -19 16
-19 3 0 2 5 -2 12 -4 7 -3 8 5 4 6 -4 10 -13 9 -20 -3 -13 30 -62 65 -98 9
-10 17 -22 17 -28 0 -5 8 -14 18 -19 9 -6 13 -11 8 -11 -5 0 -3 -7 4 -15 12
-15 11 -16 -10 -19 -6 0 -14 -7 -19 -14 -5 -8 -12 -14 -17 -15 -5 -1 -8 -6 -6
-10 1 -5 -2 -6 -7 -3 -5 4 -22 -5 -38 -18 -25 -21 -31 -22 -48 -10 -10 8 -15
14 -10 14 4 0 -4 10 -18 23 -15 12 -27 26 -27 31 0 5 -8 15 -17 23 -11 9 -12
11 -3 7 14 -7 -9 26 -35 51 -6 6 -26 33 -44 62 -19 29 -38 50 -43 47 -5 -3 -8
-2 -7 3 3 20 -2 27 -12 13 -8 -12 -9 -11 -5 6 4 13 -1 28 -13 40 -18 19 -17
20 18 51 35 32 42 35 86 38 12 0 19 7 19 18 -1 9 3 17 9 17 6 0 8 2 5 6 -7 7
45 61 55 56 4 -2 7 0 7 5 0 4 13 8 29 8 16 1 28 -2 25 -6 -2 -4 2 -14 10 -22
8 -8 12 -18 8 -21 -3 -4 0 -4 9 -1 8 3 16 13 17 23 5 50 31 102 71 143 48 51
158 76 211 49z m-945 -110 c3 -6 -1 -7 -9 -4 -18 7 -21 14 -7 14 6 0 13 -4 16
-10z m320 -310 c4 -6 11 -7 17 -4 6 4 13 3 17 -2 11 -16 79 -64 91 -64 6 0 9
-4 6 -9 -3 -4 11 -25 32 -46 20 -21 31 -35 25 -31 -17 9 -16 1 1 -32 9 -18 13
-49 10 -87 -5 -80 -5 -83 -21 -89 -8 -3 -11 -11 -8 -16 4 -6 1 -9 -7 -8 -7 2
-12 -4 -10 -12 2 -8 0 -12 -3 -8 -4 4 -17 2 -29 -4 -11 -7 -24 -11 -28 -10
-11 3 -3 -38 8 -46 6 -4 13 -15 17 -25 4 -11 12 -15 19 -11 7 4 10 4 6 -1 -10
-10 10 -47 22 -40 5 3 12 0 16 -6 4 -8 3 -9 -4 -5 -11 6 -17 -13 -13 -37 1 -5
-2 -6 -7 -3 -5 3 -18 -4 -30 -14 -12 -11 -25 -20 -29 -20 -5 0 -20 -11 -35
-25 l-27 -25 -12 21 c-17 32 -130 189 -136 189 -3 0 1 -8 8 -17 13 -16 12 -17
-3 -5 -9 8 -15 19 -12 26 2 7 -9 25 -25 42 -17 16 -31 35 -31 42 0 6 -4 12
-10 12 -5 0 -10 6 -10 13 0 6 -19 33 -42 58 -24 26 -44 53 -46 60 -2 8 -10 21
-17 29 -14 15 -17 63 -4 54 4 -2 17 4 30 14 28 22 60 36 73 33 16 -4 25 23 13
38 -8 10 -8 13 -1 8 6 -4 24 5 40 20 16 15 31 27 34 27 3 1 4 4 3 8 -2 4 3 5
10 3 6 -2 28 0 47 4 48 12 48 12 55 1z m50 -769 c3 -5 2 -12 -3 -15 -5 -3 -9
1 -9 9 0 17 3 19 12 6z"/>
<path d="M2353 9379 c-131 -65 -143 -210 -26 -321 79 -75 192 -61 282 37 46
50 48 60 22 94 l-18 24 -55 -57 c-46 -47 -60 -56 -90 -56 -20 0 -46 8 -57 18
-22 17 -22 17 78 91 l101 75 -33 39 c-63 76 -128 94 -204 56z m82 -71 c14 -6
25 -17 25 -24 0 -17 -100 -88 -110 -77 -24 25 -21 54 9 83 33 33 39 35 76 18z"/>
<path d="M2375 9269 c-4 -6 -4 -13 -1 -16 3 -4 6 -1 6 6 0 7 5 9 10 6 6 -3 10
-1 10 4 0 14 -17 14 -25 0z"/>
<path d="M2525 9193 c-16 -15 -29 -31 -27 -36 1 -4 -2 -6 -8 -2 -5 3 -17 2
-26 -3 -15 -8 -15 -10 1 -15 21 -9 58 10 49 25 -4 6 -3 8 3 5 5 -3 16 2 24 11
41 48 31 56 -16 15z"/>
<path d="M1874 9025 c-51 -25 -88 -59 -118 -107 -17 -27 -17 -27 14 -43 l32
-17 42 47 c46 52 88 63 113 29 12 -16 10 -21 -19 -43 -86 -65 -120 -126 -103
-180 3 -11 20 -34 36 -51 24 -23 39 -30 71 -30 70 0 138 59 138 121 0 16 4 19
18 14 36 -15 48 -14 70 5 l23 19 -85 115 c-81 110 -122 146 -164 146 -10 0
-41 -11 -68 -25z m166 -233 c0 -24 -44 -72 -66 -72 -21 0 -44 30 -44 57 0 16
13 37 37 59 l37 34 18 -28 c10 -15 18 -37 18 -50z"/>
<path d="M1975 8800 c-14 -15 -16 -23 -7 -32 14 -14 41 5 38 27 -4 25 -12 26
-31 5z"/>
<path d="M1889 8903 c-13 -17 -13 -17 6 -3 11 8 22 16 24 17 2 2 0 3 -6 3 -6
0 -17 -8 -24 -17z"/>
<path d="M1491 8839 c-22 -18 -23 -22 -12 -60 9 -31 9 -47 0 -74 -10 -27 -10
-37 1 -50 12 -14 15 -14 31 1 11 10 20 15 22 13 146 -199 153 -206 225 -201
24 2 112 77 112 96 -1 6 -10 22 -21 35 l-20 24 -27 -26 c-44 -42 -61 -35 -120
43 -29 39 -55 77 -58 84 -3 8 12 26 35 43 l40 29 -23 29 -24 29 -42 -29 -42
-29 -27 32 -26 31 -24 -20z"/>
<path d="M1302 8603 c-42 -21 -82 -72 -82 -106 0 -31 -6 -33 -31 -11 -16 14
-20 14 -48 -7 -17 -12 -27 -27 -24 -33 3 -6 53 -75 111 -153 l105 -142 38 27
c21 15 39 30 39 34 0 4 -29 47 -65 95 -68 92 -85 136 -65 172 15 29 55 44 81
31 14 -8 117 -137 166 -209 5 -7 84 52 81 60 -2 4 -38 56 -81 114 -105 142
-147 166 -225 128z"/>
<path d="M940 8329 c-47 -19 -92 -62 -112 -107 -26 -57 -18 -113 24 -176 65
-99 173 -125 264 -63 81 55 105 136 65 222 -47 103 -154 158 -241 124z m84
-94 c37 -24 77 -89 78 -126 2 -62 -72 -90 -126 -48 -32 25 -66 89 -66 123 0
28 42 66 72 66 10 0 29 -7 42 -15z"/>
<path d="M960 8203 c-23 -27 -14 -61 29 -105 21 -21 29 -24 40 -15 12 9 13 9
7 0 -10 -17 2 -16 20 1 18 19 18 40 -1 56 -9 7 -13 15 -10 18 6 6 -51 62 -63
62 -4 0 -14 -8 -22 -17z m24 -79 c3 -8 2 -12 -4 -9 -6 3 -10 10 -10 16 0 14 7
11 14 -7z"/>
<path d="M661 8125 c-22 -25 -31 -46 -31 -70 0 -40 -9 -44 -35 -15 -18 19 -18
19 -46 -1 -16 -11 -29 -25 -29 -30 0 -8 184 -264 210 -293 9 -9 80 40 80 55 0
5 -27 46 -60 91 -34 45 -63 92 -66 104 -7 27 18 77 48 98 l22 16 -21 37 c-12
21 -26 39 -31 41 -5 1 -23 -13 -41 -33z"/>
<path d="M770 8131 c0 -6 4 -13 10 -16 6 -3 7 1 4 9 -7 18 -14 21 -14 7z"/>
<path d="M341 7893 c-37 -19 -71 -66 -71 -101 0 -21 -1 -22 -23 -7 -22 14 -26
14 -53 -7 -16 -12 -31 -23 -32 -24 -7 -5 313 -433 323 -433 6 -1 26 12 45 28
l35 29 -62 81 -62 81 36 0 c79 0 141 74 129 155 -12 74 -86 172 -153 201 -42
18 -70 17 -112 -3z m83 -98 c30 -20 72 -81 80 -118 8 -33 -30 -77 -67 -77 -24
0 -85 56 -106 97 -38 75 25 142 93 98z"/>
<path d="M370 7763 c0 -8 5 -11 12 -7 7 4 8 3 4 -5 -6 -9 -11 -9 -22 0 -11 9
-14 8 -14 -8 0 -21 23 -58 57 -90 26 -25 32 -27 48 -15 20 14 15 43 -14 86
-31 45 -71 67 -71 39z"/>
<path d="M4195 10743 c-51 -27 -94 -64 -115 -98 -26 -42 -26 -42 12 -61 29
-15 32 -15 41 2 17 32 77 84 96 84 10 0 26 -9 36 -20 17 -18 15 -21 -44 -75
-72 -68 -89 -110 -64 -162 37 -78 109 -95 182 -43 31 23 44 41 53 74 11 43 12
44 34 29 20 -13 25 -13 48 2 14 10 26 21 26 26 0 20 -169 235 -194 247 -36 16
-75 15 -111 -5z m155 -233 c0 -58 -55 -95 -90 -60 -28 28 -25 44 16 90 35 38
38 40 55 24 12 -11 19 -31 19 -54z"/>
<path d="M4297 10512 c-19 -20 -22 -42 -8 -42 12 0 25 19 28 43 4 22 0 21 -20
-1z"/>
<path d="M3299 10623 c-13 -16 -12 -17 4 -4 9 7 17 15 17 17 0 8 -8 3 -21 -13z"/>
<path d="M4216 10623 c-6 -14 -5 -15 5 -6 7 7 10 15 7 18 -3 3 -9 -2 -12 -12z"/>
<path d="M3916 10535 c-33 -25 -63 -45 -68 -45 -4 0 -26 -16 -47 -36 -43 -39
-66 -91 -57 -129 10 -41 64 -94 103 -101 30 -6 34 -9 29 -30 -6 -24 23 -65 52
-75 9 -3 9 -11 0 -36 -26 -70 38 -134 114 -113 92 26 198 136 198 207 0 71
-61 132 -119 118 -14 -3 -56 -27 -93 -52 -63 -43 -88 -48 -88 -19 0 8 16 26
36 41 20 15 45 48 56 72 23 52 15 89 -29 135 -25 26 -26 28 -9 47 15 16 15 22
4 40 -7 12 -15 21 -18 21 -3 0 -32 -21 -64 -45z m-1 -111 c22 -9 47 -61 40
-85 -16 -48 -85 -48 -110 1 -19 37 -19 49 2 72 17 19 39 23 68 12z m243 -257
c3 -23 -5 -38 -42 -73 -51 -49 -97 -59 -115 -26 -15 27 6 60 63 99 59 41 90
40 94 0z"/>
<path d="M3870 10385 c-10 -12 -9 -16 4 -21 9 -3 14 -10 11 -14 -9 -15 23 -19
35 -4 12 13 7 18 -14 15 -5 -1 -6 5 -3 13 8 20 -19 28 -33 11z"/>
<path d="M4112 10163 c-6 -2 -10 -9 -6 -14 3 -5 -1 -9 -8 -9 -18 0 -73 -48
-65 -57 4 -3 15 1 25 10 10 10 24 17 30 17 6 0 18 14 27 30 9 17 14 30 13 29
-2 0 -9 -3 -16 -6z"/>
<path d="M4030 10576 c0 -4 9 -20 19 -35 15 -21 17 -28 6 -28 -8 0 -11 5 -8
11 4 6 0 5 -9 -2 -15 -12 -14 -16 8 -49 13 -20 24 -42 24 -49 0 -8 4 -14 10
-14 5 0 3 -19 -5 -45 -12 -41 -8 -64 9 -48 4 4 12 8 19 9 7 2 22 5 35 8 12 3
22 1 22 -5 0 -5 7 -9 15 -9 12 0 12 3 -2 19 -9 11 -20 18 -25 15 -5 -3 -7 -2
-6 3 1 4 -3 18 -10 30 -15 27 -22 123 -9 123 5 0 4 7 -3 15 -7 9 -15 13 -18
10 -3 -2 -11 3 -19 13 -9 10 -12 11 -7 2 4 -8 -5 -4 -19 9 -15 14 -27 21 -27
17z"/>
<path d="M3545 10263 c-48 -25 -83 -63 -101 -109 -15 -38 -15 -47 0 -96 27
-94 111 -167 192 -168 43 0 127 45 168 91 41 45 43 58 18 90 l-19 22 -49 -51
c-56 -57 -95 -72 -133 -51 -14 8 -26 20 -26 26 0 6 39 41 88 78 48 36 87 70
87 75 0 16 -61 80 -91 96 -36 18 -96 17 -134 -3z m95 -81 l23 -18 -49 -36
c-73 -52 -73 -52 -84 -23 -7 18 -7 33 2 48 25 48 70 60 108 29z"/>
<path d="M3565 10149 c-11 -17 1 -21 15 -4 8 9 8 15 2 15 -6 0 -14 -5 -17 -11z"/>
<path d="M3815 10169 c6 -25 4 -30 -6 -24 -8 4 -3 -3 11 -14 14 -11 21 -21 16
-21 -5 0 1 -9 13 -19 12 -11 22 -22 21 -25 0 -4 3 -14 9 -23 6 -12 8 -8 7 18
-1 42 -29 84 -48 74 -10 -6 -10 -5 -2 4 15 16 5 61 -13 61 -11 0 -13 -7 -8
-31z"/>
<path d="M3291 10079 c-26 -24 -41 -60 -41 -96 l0 -26 -24 22 c-19 18 -28 21
-43 12 -53 -27 -51 -32 62 -186 59 -80 112 -145 119 -145 6 0 26 13 44 28 l33
27 -66 89 c-80 108 -86 146 -32 193 l34 30 -21 36 c-24 43 -34 45 -65 16z"/>
<path d="M3688 10057 c-26 -18 -48 -35 -48 -38 0 -15 52 6 69 27 10 13 22 20
26 16 5 -4 5 -2 2 5 -4 6 -1 14 5 16 7 3 9 5 3 6 -5 0 -31 -15 -57 -32z"/>
<path d="M2910 9891 c-23 -18 -24 -22 -13 -62 9 -33 8 -49 -3 -74 -12 -29 -11
-35 2 -46 12 -10 20 -10 35 -1 17 11 25 2 85 -79 96 -131 142 -144 229 -67 25
22 45 43 45 48 0 4 -10 19 -21 34 l-22 27 -26 -25 c-44 -42 -62 -34 -125 49
-31 41 -56 78 -56 82 0 4 16 22 36 39 37 30 37 30 19 57 -22 34 -28 34 -72 0
l-35 -27 -27 32 -26 32 -25 -19z"/>
<path d="M2714 9651 c-33 -20 -74 -67 -74 -85 0 -6 -4 -17 -9 -25 -8 -12 -12
-12 -25 -2 -10 9 -20 9 -34 2 -50 -27 -48 -32 63 -183 59 -78 112 -144 118
-146 7 -1 28 10 47 26 l34 29 -31 39 c-118 150 -136 199 -88 244 41 38 68 21
155 -97 41 -56 77 -102 80 -102 3 -1 22 14 42 32 l38 32 -85 112 c-46 61 -94
118 -107 127 -30 21 -86 20 -124 -3z"/>
<path d="M2209 8413 c-13 -16 -12 -17 4 -4 9 7 17 15 17 17 0 8 -8 3 -21 -13z"/>
</g>
</svg>
